PublicHD - High-Definition Bittorrent Community 
   
  http://publichd.eu/

-----------------------------------------------------

UEFA.Euro.2012.Quarter.Final.Czech.Republic.vs.Portugal.HDTV.x264-DUKES [PublicHD]

Video
ID                               : 1
Format                           : AVC
Format/Info                      : Advanced Video Codec
Format profile                   : High@L3.1
Format settings, CABAC           : Yes
Format settings, ReFrames        : 5 frames
Format settings, GOP             : M=2, N=3
Codec ID                         : avc1
Codec ID/Info                    : Advanced Video Coding
Duration                         : 1h 51mn
Bit rate                         : 967 Kbps
Maximum bit rate                 : 4 233 Kbps
Width                            : 720 pixels
Height                           : 406 pixels
Display aspect ratio             : 16:9
Frame rate mode                  : Constant
Frame rate                       : 29.970 fps
Color space                      : YUV
Chroma subsampling               : 4:2:0
Bit depth                        : 8 bits
Scan type                        : Progressive
Bits/(Pixel*Frame)               : 0.110
Stream size                      : 772 MiB (88%)
Writing library                  : x264 core 124 r2197 69a0443

Audio
ID                               : 2
Format                           : AAC
Format/Info                      : Advanced Audio Codec
Format profile                   : LC
Codec ID                         : 40
Duration                         : 1h 51mn
Bit rate mode                    : Variable
Bit rate                         : 124 Kbps
Maximum bit rate                 : 160 Kbps
Channel(s)                       : 2 channels
Channel positions                : Front: L R
Sampling rate                    : 48.0 KHz
Compression mode                 : Lossy
Stream size                      : 99.0 MiB (11%)
Encoded date                     : UTC 2012-06-20 22:08:15
Tagged date                      : UTC 2012-06-20 22:08:17
